STARTFONT 2.1
COMMENT
COMMENT Converted from OpenType font "MARKEN__.TTF" by "otf2bdf 3.0".
COMMENT
FONT -FreeType-Marke Eigenbau-Medium-R-Normal--8-60-100-100-P-42-ISO10646-1
SIZE 6 100 100
FONTBOUNDINGBOX 9 11 0 -2
STARTPROPERTIES 19
FOUNDRY "FreeType"
FAMILY_NAME "Marke Eigenbau"
WEIGHT_NAME "Medium"
SLANT "R"
SETWIDTH_NAME "Normal"
ADD_STYLE_NAME ""
PIXEL_SIZE 8
POINT_SIZE 60
RESOLUTION_X 100
RESOLUTION_Y 100
SPACING "P"
AVERAGE_WIDTH 42
CHARSET_REGISTRY "ISO10646"
CHARSET_ENCODING "1"
FONT_ASCENT 9
FONT_DESCENT 2
COPYRIGHT "Marke Eigenbau - SemiPixelFont - Copyright 2005 by Michael Schmidt ( http://www.style-force.net | http://www.welovewhatwedo.com )"
_OTF_FONTFILE "MARKEN__.TTF"
_OTF_PSNAME "MarkeEigenbauNormal"
ENDPROPERTIES
CHARS 102
STARTCHAR 0020
ENCODING 32
SWIDTH 480 0
DWIDTH 4 0
BBX 0 0 0 0
BITMAP
ENDCHAR
STARTCHAR 0021
ENCODING 33
SWIDTH 240 0
DWIDTH 2 0
BBX 1 7 0 0
BITMAP
80
80
80
80
80
00
80
ENDCHAR
STARTCHAR 0022
ENCODING 34
SWIDTH 480 0
DWIDTH 4 0
BBX 3 2 0 5
BITMAP
A0
A0
ENDCHAR
STARTCHAR 0023
ENCODING 35
SWIDTH 720 0
DWIDTH 6 0
BBX 5 5 0 1
BITMAP
58
F8
50
F8
50
ENDCHAR
STARTCHAR 0024
ENCODING 36
SWIDTH 720 0
DWIDTH 6 0
BBX 5 9 0 -1
BITMAP
20
78
A8
A0
78
28
A8
70
20
ENDCHAR
STARTCHAR 0025
ENCODING 37
SWIDTH 960 0
DWIDTH 8 0
BBX 7 7 0 0
BITMAP
62
A4
48
10
26
4A
84
ENDCHAR
STARTCHAR 0026
ENCODING 38
SWIDTH 720 0
DWIDTH 6 0
BBX 5 7 0 0
BITMAP
70
90
90
60
A0
90
68
ENDCHAR
STARTCHAR 0027
ENCODING 39
SWIDTH 240 0
DWIDTH 2 0
BBX 1 2 0 5
BITMAP
80
80
ENDCHAR
STARTCHAR 0028
ENCODING 40
SWIDTH 360 0
DWIDTH 3 0
BBX 2 7 0 0
BITMAP
40
80
80
80
80
80
40
ENDCHAR
STARTCHAR 0029
ENCODING 41
SWIDTH 360 0
DWIDTH 3 0
BBX 2 7 0 0
BITMAP
80
40
40
40
40
40
80
ENDCHAR
STARTCHAR 002B
ENCODING 43
SWIDTH 480 0
DWIDTH 4 0
BBX 3 3 0 2
BITMAP
40
E0
40
ENDCHAR
STARTCHAR 002C
ENCODING 44
SWIDTH 360 0
DWIDTH 3 0
BBX 2 2 0 -1
BITMAP
40
80
ENDCHAR
STARTCHAR 002D
ENCODING 45
SWIDTH 480 0
DWIDTH 4 0
BBX 3 1 0 3
BITMAP
E0
ENDCHAR
STARTCHAR 002E
ENCODING 46
SWIDTH 240 0
DWIDTH 2 0
BBX 1 1 0 0
BITMAP
80
ENDCHAR
STARTCHAR 002F
ENCODING 47
SWIDTH 480 0
DWIDTH 4 0
BBX 3 7 0 0
BITMAP
20
20
40
40
40
80
80
ENDCHAR
STARTCHAR 0030
ENCODING 48
SWIDTH 600 0
DWIDTH 5 0
BBX 4 7 0 0
BITMAP
70
90
90
90
90
90
60
ENDCHAR
STARTCHAR 0031
ENCODING 49
SWIDTH 480 0
DWIDTH 4 0
BBX 3 7 0 0
BITMAP
20
60
A0
20
20
20
20
ENDCHAR
STARTCHAR 0032
ENCODING 50
SWIDTH 600 0
DWIDTH 5 0
BBX 4 7 0 0
BITMAP
70
90
10
20
40
80
F0
ENDCHAR
STARTCHAR 0033
ENCODING 51
SWIDTH 600 0
DWIDTH 5 0
BBX 4 7 0 0
BITMAP
70
90
10
20
10
90
60
ENDCHAR
STARTCHAR 0034
ENCODING 52
SWIDTH 720 0
DWIDTH 6 0
BBX 5 7 0 0
BITMAP
10
30
50
90
F8
10
10
ENDCHAR
STARTCHAR 0035
ENCODING 53
SWIDTH 600 0
DWIDTH 5 0
BBX 4 7 0 0
BITMAP
F0
80
80
F0
10
10
E0
ENDCHAR
STARTCHAR 0036
ENCODING 54
SWIDTH 600 0
DWIDTH 5 0
BBX 4 7 0 0
BITMAP
70
90
80
F0
90
90
60
ENDCHAR
STARTCHAR 0037
ENCODING 55
SWIDTH 600 0
DWIDTH 5 0
BBX 4 7 0 0
BITMAP
F0
10
10
20
20
40
40
ENDCHAR
STARTCHAR 0038
ENCODING 56
SWIDTH 600 0
DWIDTH 5 0
BBX 4 7 0 0
BITMAP
70
90
90
60
90
90
60
ENDCHAR
STARTCHAR 0039
ENCODING 57
SWIDTH 600 0
DWIDTH 5 0
BBX 4 7 0 0
BITMAP
70
90
90
70
10
90
60
ENDCHAR
STARTCHAR 003A
ENCODING 58
SWIDTH 360 0
DWIDTH 3 0
BBX 1 3 1 2
BITMAP
80
00
80
ENDCHAR
STARTCHAR 003B
ENCODING 59
SWIDTH 480 0
DWIDTH 4 0
BBX 2 5 1 0
BITMAP
40
00
40
40
80
ENDCHAR
STARTCHAR 003C
ENCODING 60
SWIDTH 480 0
DWIDTH 4 0
BBX 3 5 0 1
BITMAP
20
40
80
40
20
ENDCHAR
STARTCHAR 003D
ENCODING 61
SWIDTH 480 0
DWIDTH 4 0
BBX 3 3 0 2
BITMAP
E0
00
E0
ENDCHAR
STARTCHAR 003E
ENCODING 62
SWIDTH 480 0
DWIDTH 4 0
BBX 3 5 0 1
BITMAP
80
40
20
40
80
ENDCHAR
STARTCHAR 003F
ENCODING 63
SWIDTH 600 0
DWIDTH 5 0
BBX 4 7 0 0
BITMAP
70
90
10
20
40
00
40
ENDCHAR
STARTCHAR 0040
ENCODING 64
SWIDTH 960 0
DWIDTH 8 0
BBX 7 7 0 0
BITMAP
3C
46
92
BA
94
40
38
ENDCHAR
STARTCHAR 0041
ENCODING 65
SWIDTH 720 0
DWIDTH 6 0
BBX 5 7 0 0
BITMAP
78
88
88
F8
88
88
88
ENDCHAR
STARTCHAR 0042
ENCODING 66
SWIDTH 720 0
DWIDTH 6 0
BBX 5 7 0 0
BITMAP
F8
88
88
F0
88
88
F0
ENDCHAR
STARTCHAR 0043
ENCODING 67
SWIDTH 720 0
DWIDTH 6 0
BBX 5 7 0 0
BITMAP
78
88
80
80
80
88
70
ENDCHAR
STARTCHAR 0044
ENCODING 68
SWIDTH 720 0
DWIDTH 6 0
BBX 5 7 0 0
BITMAP
F8
88
88
88
88
88
F0
ENDCHAR
STARTCHAR 0045
ENCODING 69
SWIDTH 600 0
DWIDTH 5 0
BBX 4 7 0 0
BITMAP
F0
80
80
F0
80
80
F0
ENDCHAR
STARTCHAR 0046
ENCODING 70
SWIDTH 600 0
DWIDTH 5 0
BBX 4 7 0 0
BITMAP
F0
80
80
F0
80
80
80
ENDCHAR
STARTCHAR 0047
ENCODING 71
SWIDTH 720 0
DWIDTH 6 0
BBX 5 7 0 0
BITMAP
78
88
80
B8
88
88
70
ENDCHAR
STARTCHAR 0048
ENCODING 72
SWIDTH 720 0
DWIDTH 6 0
BBX 5 7 0 0
BITMAP
88
88
88
F8
88
88
88
ENDCHAR
STARTCHAR 0049
ENCODING 73
SWIDTH 240 0
DWIDTH 2 0
BBX 1 7 0 0
BITMAP
80
80
80
80
80
80
80
ENDCHAR
STARTCHAR 004A
ENCODING 74
SWIDTH 600 0
DWIDTH 5 0
BBX 4 7 0 0
BITMAP
10
10
10
10
10
90
60
ENDCHAR
STARTCHAR 004B
ENCODING 75
SWIDTH 600 0
DWIDTH 5 0
BBX 4 7 0 0
BITMAP
90
90
A0
C0
A0
90
90
ENDCHAR
STARTCHAR 004C
ENCODING 76
SWIDTH 600 0
DWIDTH 5 0
BBX 4 7 0 0
BITMAP
80
80
80
80
80
80
F0
ENDCHAR
STARTCHAR 004D
ENCODING 77
SWIDTH 720 0
DWIDTH 6 0
BBX 5 7 0 0
BITMAP
88
88
D8
A8
88
88
88
ENDCHAR
STARTCHAR 004E
ENCODING 78
SWIDTH 720 0
DWIDTH 6 0
BBX 5 7 0 0
BITMAP
88
88
C8
A8
98
88
88
ENDCHAR
STARTCHAR 004F
ENCODING 79
SWIDTH 720 0
DWIDTH 6 0
BBX 5 7 0 0
BITMAP
78
88
88
88
88
88
70
ENDCHAR
STARTCHAR 0050
ENCODING 80
SWIDTH 720 0
DWIDTH 6 0
BBX 5 7 0 0
BITMAP
F8
88
88
F0
80
80
80
ENDCHAR
STARTCHAR 0051
ENCODING 81
SWIDTH 720 0
DWIDTH 6 0
BBX 5 8 0 -1
BITMAP
78
88
88
88
88
88
70
08
ENDCHAR
STARTCHAR 0052
ENCODING 82
SWIDTH 720 0
DWIDTH 6 0
BBX 5 7 0 0
BITMAP
F8
88
88
F0
88
88
88
ENDCHAR
STARTCHAR 0053
ENCODING 83
SWIDTH 600 0
DWIDTH 5 0
BBX 4 7 0 0
BITMAP
70
90
80
70
10
90
60
ENDCHAR
STARTCHAR 0054
ENCODING 84
SWIDTH 720 0
DWIDTH 6 0
BBX 5 7 0 0
BITMAP
F8
20
20
20
20
20
20
ENDCHAR
STARTCHAR 0055
ENCODING 85
SWIDTH 720 0
DWIDTH 6 0
BBX 5 7 0 0
BITMAP
88
88
88
88
88
88
70
ENDCHAR
STARTCHAR 0056
ENCODING 86
SWIDTH 720 0
DWIDTH 6 0
BBX 5 7 0 0
BITMAP
88
88
88
50
50
20
20
ENDCHAR
STARTCHAR 0057
ENCODING 87
SWIDTH 720 0
DWIDTH 6 0
BBX 5 7 0 0
BITMAP
88
88
88
A8
A8
A8
50
ENDCHAR
STARTCHAR 0058
ENCODING 88
SWIDTH 600 0
DWIDTH 5 0
BBX 4 7 0 0
BITMAP
90
90
90
60
90
90
90
ENDCHAR
STARTCHAR 0059
ENCODING 89
SWIDTH 720 0
DWIDTH 6 0
BBX 5 7 0 0
BITMAP
88
88
50
20
20
20
20
ENDCHAR
STARTCHAR 005A
ENCODING 90
SWIDTH 720 0
DWIDTH 6 0
BBX 5 7 0 0
BITMAP
F8
08
10
20
40
80
F8
ENDCHAR
STARTCHAR 005B
ENCODING 91
SWIDTH 360 0
DWIDTH 3 0
BBX 2 7 0 0
BITMAP
C0
80
80
80
80
80
C0
ENDCHAR
STARTCHAR 005C
ENCODING 92
SWIDTH 480 0
DWIDTH 4 0
BBX 3 7 0 0
BITMAP
80
80
40
40
40
20
20
ENDCHAR
STARTCHAR 005D
ENCODING 93
SWIDTH 360 0
DWIDTH 3 0
BBX 2 7 0 0
BITMAP
C0
40
40
40
40
40
C0
ENDCHAR
STARTCHAR 005F
ENCODING 95
SWIDTH 480 0
DWIDTH 4 0
BBX 3 1 0 0
BITMAP
E0
ENDCHAR
STARTCHAR 0061
ENCODING 97
SWIDTH 600 0
DWIDTH 5 0
BBX 4 5 0 0
BITMAP
70
90
90
90
70
ENDCHAR
STARTCHAR 0062
ENCODING 98
SWIDTH 600 0
DWIDTH 5 0
BBX 4 7 0 0
BITMAP
80
80
F0
90
90
90
E0
ENDCHAR
STARTCHAR 0063
ENCODING 99
SWIDTH 480 0
DWIDTH 4 0
BBX 3 5 0 0
BITMAP
60
80
80
80
60
ENDCHAR
STARTCHAR 0064
ENCODING 100
SWIDTH 600 0
DWIDTH 5 0
BBX 4 7 0 0
BITMAP
10
10
70
90
90
90
70
ENDCHAR
STARTCHAR 0065
ENCODING 101
SWIDTH 600 0
DWIDTH 5 0
BBX 4 5 0 0
BITMAP
70
90
F0
80
70
ENDCHAR
STARTCHAR 0066
ENCODING 102
SWIDTH 360 0
DWIDTH 3 0
BBX 2 7 0 0
BITMAP
40
80
C0
80
80
80
80
ENDCHAR
STARTCHAR 0067
ENCODING 103
SWIDTH 600 0
DWIDTH 5 0
BBX 4 7 0 -2
BITMAP
70
90
90
90
70
10
60
ENDCHAR
STARTCHAR 0068
ENCODING 104
SWIDTH 600 0
DWIDTH 5 0
BBX 4 7 0 0
BITMAP
80
80
F0
90
90
90
90
ENDCHAR
STARTCHAR 0069
ENCODING 105
SWIDTH 240 0
DWIDTH 2 0
BBX 1 7 0 0
BITMAP
80
00
80
80
80
80
80
ENDCHAR
STARTCHAR 006A
ENCODING 106
SWIDTH 360 0
DWIDTH 3 0
BBX 2 8 0 -1
BITMAP
40
00
40
40
40
40
40
80
ENDCHAR
STARTCHAR 006B
ENCODING 107
SWIDTH 600 0
DWIDTH 5 0
BBX 4 7 0 0
BITMAP
80
80
90
A0
C0
A0
90
ENDCHAR
STARTCHAR 006C
ENCODING 108
SWIDTH 240 0
DWIDTH 2 0
BBX 1 7 0 0
BITMAP
80
80
80
80
80
80
80
ENDCHAR
STARTCHAR 006D
ENCODING 109
SWIDTH 960 0
DWIDTH 8 0
BBX 7 5 0 0
BITMAP
FE
92
92
92
92
ENDCHAR
STARTCHAR 006E
ENCODING 110
SWIDTH 600 0
DWIDTH 5 0
BBX 4 5 0 0
BITMAP
F0
90
90
90
90
ENDCHAR
STARTCHAR 006F
ENCODING 111
SWIDTH 600 0
DWIDTH 5 0
BBX 4 5 0 0
BITMAP
70
90
90
90
60
ENDCHAR
STARTCHAR 0070
ENCODING 112
SWIDTH 600 0
DWIDTH 5 0
BBX 4 7 0 -2
BITMAP
F0
90
90
90
E0
80
80
ENDCHAR
STARTCHAR 0071
ENCODING 113
SWIDTH 600 0
DWIDTH 5 0
BBX 4 7 0 -2
BITMAP
70
90
90
90
70
10
10
ENDCHAR
STARTCHAR 0072
ENCODING 114
SWIDTH 480 0
DWIDTH 4 0
BBX 3 5 0 0
BITMAP
E0
80
80
80
80
ENDCHAR
STARTCHAR 0073
ENCODING 115
SWIDTH 480 0
DWIDTH 4 0
BBX 3 5 0 0
BITMAP
60
80
60
20
C0
ENDCHAR
STARTCHAR 0074
ENCODING 116
SWIDTH 360 0
DWIDTH 3 0
BBX 2 7 0 0
BITMAP
80
80
C0
80
80
80
40
ENDCHAR
STARTCHAR 0075
ENCODING 117
SWIDTH 600 0
DWIDTH 5 0
BBX 4 5 0 0
BITMAP
90
90
90
90
70
ENDCHAR
STARTCHAR 0076
ENCODING 118
SWIDTH 600 0
DWIDTH 5 0
BBX 4 5 0 0
BITMAP
90
90
90
90
60
ENDCHAR
STARTCHAR 0077
ENCODING 119
SWIDTH 720 0
DWIDTH 6 0
BBX 5 5 0 0
BITMAP
88
88
A8
A8
50
ENDCHAR
STARTCHAR 0078
ENCODING 120
SWIDTH 600 0
DWIDTH 5 0
BBX 4 5 0 0
BITMAP
90
90
60
90
90
ENDCHAR
STARTCHAR 0079
ENCODING 121
SWIDTH 600 0
DWIDTH 5 0
BBX 4 7 0 -2
BITMAP
90
90
90
90
70
10
60
ENDCHAR
STARTCHAR 007A
ENCODING 122
SWIDTH 480 0
DWIDTH 4 0
BBX 3 5 0 0
BITMAP
E0
20
40
80
E0
ENDCHAR
STARTCHAR 007B
ENCODING 123
SWIDTH 480 0
DWIDTH 4 0
BBX 3 7 0 0
BITMAP
20
40
40
80
40
40
20
ENDCHAR
STARTCHAR 007C
ENCODING 124
SWIDTH 240 0
DWIDTH 2 0
BBX 1 7 0 0
BITMAP
80
80
80
80
80
80
80
ENDCHAR
STARTCHAR 007D
ENCODING 125
SWIDTH 480 0
DWIDTH 4 0
BBX 3 7 0 0
BITMAP
80
40
40
20
40
40
80
ENDCHAR
STARTCHAR 00A7
ENCODING 167
SWIDTH 480 0
DWIDTH 4 0
BBX 3 9 0 0
BITMAP
60
A0
80
40
A0
40
20
A0
40
ENDCHAR
STARTCHAR 00B3
ENCODING 179
SWIDTH 480 0
DWIDTH 4 0
BBX 3 5 0 1
BITMAP
E0
20
40
20
C0
ENDCHAR
STARTCHAR 00C4
ENCODING 196
SWIDTH 720 0
DWIDTH 6 0
BBX 5 9 0 0
BITMAP
88
00
78
88
88
F8
88
88
88
ENDCHAR
STARTCHAR 00D6
ENCODING 214
SWIDTH 720 0
DWIDTH 6 0
BBX 5 9 0 0
BITMAP
88
00
78
88
88
88
88
88
70
ENDCHAR
STARTCHAR 00DC
ENCODING 220
SWIDTH 720 0
DWIDTH 6 0
BBX 5 9 0 0
BITMAP
88
00
88
88
88
88
88
88
70
ENDCHAR
STARTCHAR 00DF
ENCODING 223
SWIDTH 600 0
DWIDTH 5 0
BBX 4 7 0 0
BITMAP
70
90
90
A0
90
90
A0
ENDCHAR
STARTCHAR 00E4
ENCODING 228
SWIDTH 600 0
DWIDTH 5 0
BBX 4 7 0 0
BITMAP
90
00
70
90
90
90
70
ENDCHAR
STARTCHAR 00F6
ENCODING 246
SWIDTH 600 0
DWIDTH 5 0
BBX 4 7 0 0
BITMAP
90
00
70
90
90
90
60
ENDCHAR
STARTCHAR 00FC
ENCODING 252
SWIDTH 600 0
DWIDTH 5 0
BBX 4 7 0 0
BITMAP
90
00
90
90
90
90
70
ENDCHAR
STARTCHAR 2010
ENCODING 8208
SWIDTH 480 0
DWIDTH 4 0
BBX 3 1 0 3
BITMAP
E0
ENDCHAR
STARTCHAR 2122
ENCODING 8482
SWIDTH 1200 0
DWIDTH 10 0
BBX 9 4 0 3
BITMAP
E880
4D80
4A80
4880
ENDCHAR
ENDFONT
